<?xml version="1.0" encoding="UTF-8" standalone="yes"?>
<!-- Created with sK1/UniConvertor (http://sk1project.org/) -->
<svg xmlns="http://www.w3.org/2000/svg" xmlns:xlink="http://www.w3.org/1999/xlink"
  width="595.276pt" height="841.89pt" viewBox="0 0 595.276 841.89"
  fill-rule="evenodd">
<g>
<path style="stroke:none; fill:none" d="M 539.157 179.556L 52.0212 179.556L 52.0212 663.224L 535.689 663.224L 539.157 179.556z"/>
<path style="stroke:none; fill:#ffffff" d="M 247.024 243.452L 238.379 243.154L 230.253 243.845L 222.671 245.554L 215.656 248.307L 209.491 251.944L 203.82 256.615L 198.662 262.343L 194.035 269.155L 186.719 280.562L 180.138 288.369L 172.612 294.765L 162.458 301.943L 159.459 304.017L 155.077 307.079L 152.806 308.672L 152.038 309.21L 152.32 309.01L 153.2 308.391L 154.221 307.669L 154.934 307.166L 155.011 307.111L 155.033 307.094L 154.992 307.122L 154.884 307.198L 154.43 307.513L 153.617 308.083L 143.512 315.588L 134.992 324.572L 131.73 330.144L 129.348 336.717L 128.008 344.501L 127.869 353.708L 127.871 369.199L 126.064 383.758L 122.209 397.969L 116.117 412.14L 112.2 420.764L 109.651 428.65L 108.445 435.992L 108.554 442.99L 109.999 450.11L 112.761 457.491L 116.815 465.33L 122.133 473.819L 129.944 486.322L 135.134 496.506L 138.846 505.998L 142.218 516.426L 144.088 522.368L 145.848 527.817L 152.006 542.411L 160.599 554.295L 166.054 559.075L 172.534 563.143L 180.161 566.463L 189.059 569L 205.215 573.853L 217.519 579.884L 227.197 586.646L 235.473 593.698L 236.362 594.481L 237.693 595.648L 245.753 602.054L 253.302 606.773L 260.433 609.943L 267.236 611.705L 280.253 611.619L 293.574 607.747L 298.727 605.71L 301.184 604.74L 301.449 604.635L 301.594 604.579L 301.624 604.568L 301.627 604.567L 301.605 604.577L 301.56 604.595L 301.157 604.757L 300.463 605.034L 298.506 605.814L 296.3 606.691L 295.294 607.091L 294.455 607.424L 293.86 607.661L 293.584 607.771L 296.05 606.793L 309.573 601.686L 320.687 599.095L 333.867 598.801L 353.591 600.586L 364.009 600.884L 372.882 599.474L 380.374 596.693L 386.647 592.873L 396.183 583.463L 402.789 573.924L 402.789 573.896L 403.28 573.129L 411.625 561.963L 420.657 553.326L 431.249 545.703L 444.27 537.579L 447.391 535.669L 455.985 529.717L 462.643 523.6L 467.58 517.21L 471.015 510.435L 474.498 494.336L 474.669 474.627L 474.877 463.7L 476.223 453.11L 478.778 442.384L 482.074 433.853L 487.014 422.508L 489.979 412.477L 491.193 403.601L 490.881 395.723L 489.287 388.733L 486.613 382.255L 483.085 376.168L 478.926 370.345L 467.25 354.665L 460.625 343.625L 456.748 332.736L 453.316 317.511L 452.61 314.167L 452.604 314.168L 449.841 304.258L 446.182 296.054L 441.699 289.349L 436.461 283.933L 423.431 275.758L 407.764 270.015L 389.638 263.692L 377.242 257.677L 368.573 251.783L 361.631 245.826L 356.679 241.509L 350.645 236.959L 345.032 233.8L 339.347 231.816L 333.599 230.855L 327.802 230.76L 315.026 232.76L 301.923 236.588L 300.664 236.998L 299.635 237.336L 298.267 237.785L 295.99 238.529L 282.531 242.782L 273.468 244.76L 265.457 245.016L 254.758 244.144L 252.922 243.975L 247.024 243.452zM 209.435 235.532L 218.269 232.035L 227.701 229.852L 237.702 228.948L 248.246 229.289L 249.042 229.364L 250.839 229.536L 253.3 229.771L 256.09 230.037L 265.327 230.806L 271.747 230.652L 279.341 228.926L 291.603 225.032L 291.742 224.987L 292.289 224.81L 293.989 224.259L 297.591 223.091L 312.241 218.848L 327.137 216.596L 335.087 216.734L 342.995 218.077L 350.852 220.841L 358.643 225.241L 365.468 230.386L 371.073 235.274L 377.066 240.406L 384.64 245.513L 395.618 250.785L 411.819 256.408L 421.184 259.505L 430.006 263.164L 438.213 267.647L 445.736 273.213L 452.551 280.2L 458.346 288.698L 463.025 298.956L 466.49 311.224L 466.49 311.253L 467.201 314.624L 470.23 328.042L 473.695 337.698L 479.661 347.593L 490.201 361.736L 495.278 368.883L 499.603 376.481L 502.91 384.732L 504.933 393.834L 505.386 403.736L 504.024 414.652L 500.582 426.747L 494.792 440.185L 492.211 446.932L 490.163 455.61L 489.01 464.692L 488.831 474.071L 489.059 485.768L 488.546 496.487L 487.026 506.381L 484.234 515.601L 479.811 524.443L 473.605 532.666L 465.348 540.399L 454.777 547.777L 451.656 549.687L 439.867 557.033L 430.347 563.82L 422.372 571.316L 415.221 580.793L 414.729 581.561L 414.717 581.553L 406.447 593.462L 394.4 605.193L 386.418 609.943L 376.842 613.389L 365.453 615.112L 352.036 614.694L 334.407 613.086L 322.713 613.309L 312.99 615.539L 301.271 619.957L 298.787 620.944L 298.789 620.95L 300.241 620.38L 302.068 619.661L 303.877 618.948L 305.27 618.399L 305.688 618.235L 305.854 618.17L 305.719 618.224L 305.234 618.417L 303.012 619.297L 298.796 620.965L 290.37 623.868L 282.003 625.739L 273.571 626.407L 264.958 625.702L 256.268 623.503L 247.339 619.65L 238.072 613.974L 228.362 606.312L 227.446 605.506L 226.087 604.307L 218.862 598.146L 210.457 592.247L 199.847 587.01L 186.004 582.83L 175.014 579.671L 165.521 575.478L 157.378 570.298L 150.435 564.182L 144.65 557.301L 139.82 549.661L 135.79 541.3L 132.407 532.26L 130.205 525.516L 128.666 520.647L 125.567 511.06L 122.172 502.356L 117.447 493.063L 110.358 481.707L 104.179 471.782L 99.4488 462.452L 96.1954 453.458L 94.4469 444.546L 94.2418 435.406L 95.655 426.054L 98.7155 416.235L 103.453 405.698L 108.776 393.34L 112.124 381.037L 113.714 368.177L 113.706 354.43L 113.851 342.547L 115.493 332.545L 118.429 324.146L 122.459 317.072L 132.999 305.789L 145.507 296.474L 146.153 296.022L 146.459 295.809L 146.489 295.787L 146.503 295.778L 146.5 295.78L 146.482 295.792L 146.405 295.845L 146.28 295.933L 145.424 296.532L 144.347 297.285L 143.502 297.873L 143.346 297.979L 144.331 297.285L 146.912 295.471L 150.361 293.071L 154.405 290.279L 163.275 284.012L 169.831 278.457L 175.528 271.725L 181.817 261.933L 187.653 253.37L 194.22 246.135L 201.489 240.2L 209.435 235.532zM 293.584 607.771L 293.577 607.774L 293.574 607.775L 293.577 607.774L 293.584 607.771zM 298.787 620.944L 298.241 621.162L 298.1 621.219L 298.303 621.141L 298.789 620.95L 298.787 620.944z"/>
<path style="stroke:none; fill:#ffffff" d="M 355.615 583.784L 347.551 588.565L 338.378 590.867L 335.406 590.978L 332.439 590.782L 331.949 590.714L 331.462 590.63L 326.594 589.217L 322.101 586.892L 319.656 588.24L 316.966 589.084L 311.089 590.308L 305.21 591.532L 302.02 591.841L 298.863 591.418L 296.085 592.199L 293.306 592.981L 290.528 593.762L 287.748 594.544L 280.993 594.781L 274.965 591.761L 274.952 591.751L 274.941 591.741L 269.735 594.458L 264.228 596.258L 258.575 597.104L 252.933 596.956L 247.461 595.774L 242.313 593.521L 237.648 590.157L 233.621 585.641L 231.146 579.383L 232.067 572.724L 236.389 562.012L 236.771 561.146L 237.209 560.308L 234.438 554.94L 233.149 549.277L 233.367 543.421L 235.117 537.47L 235.179 537.325L 235.244 537.181L 239.902 529.49L 246.058 523.369L 253.484 518.748L 261.949 515.557L 262.271 515.471L 262.594 515.392L 271.726 514.526L 280.602 516.534L 283.709 514.719L 287.217 513.754L 293.235 512.904L 299.253 512.056L 301.898 511.921L 304.509 512.281L 305.109 512.149L 305.716 512.042L 311.614 511.134L 317.511 510.225L 323.862 510.682L 329.295 513.958L 329.479 514.139L 329.659 514.323L 338.878 509.078L 349.527 507.068L 349.679 507.064L 349.832 507.063L 357.21 508.049L 363.911 511.156L 365.725 509.99L 367.716 509.105L 376.957 506.136L 386.528 504.624L 386.755 504.618L 386.981 504.616L 394.355 505.715L 401.01 509.032L 405.167 512.808L 408.294 517.292L 410.444 522.309L 411.664 527.684L 411.517 538.807L 408.25 549.261L 402.089 558.117L 393.41 564.473L 393.262 566.503L 393.113 568.532L 392.964 570.561L 392.815 572.59L 391.849 576.757L 389.712 580.313L 386.577 583.055L 382.614 584.773L 376.177 586.471L 369.739 588.17L 363.082 588.319L 357.157 585.314L 356.355 584.576L 355.615 583.785L 355.615 583.784z"/>
<path style="stroke:none; fill:#1f1f1f" d="M 275.999 587.171L 271.408 590.133L 266.414 592.247L 261.188 593.452L 255.898 593.684L 250.717 592.881L 245.811 590.983L 241.354 587.924L 237.515 583.646L 235.68 578.974L 236.368 574.003L 240.638 563.292L 241.446 561.666L 242.485 560.253L 239.372 555.286L 237.789 550.005L 237.773 544.484L 239.36 538.803L 239.405 538.695L 239.453 538.587L 243.673 531.553L 249.248 525.981L 255.967 521.785L 263.621 518.88L 263.858 518.817L 264.096 518.758L 273.58 518.082L 281.707 520.746L 284.522 518.391L 288.124 517.175L 291.097 516.75L 294.068 516.326L 297.041 515.901L 300.013 515.476L 302.435 515.401L 304.718 515.875L 305.563 515.631L 306.441 515.456L 312.267 514.548L 318.093 513.64L 322.778 513.97L 326.782 516.426L 328.042 517.901L 328.976 519.522L 333.138 515.932L 337.89 513.142L 343.261 511.293L 349.285 510.522L 349.397 510.52L 349.51 510.518L 356.305 511.516L 362.386 514.691L 363.035 515.212L 363.657 515.752L 365.7 513.745L 368.33 512.354L 376.945 509.537L 385.857 508.078L 386.023 508.073L 386.19 508.071L 392.403 509.002L 398.01 511.828L 401.639 515.191L 404.344 519.206L 406.178 523.707L 407.192 528.531L 406.966 538.488L 404.077 547.764L 401.318 552.449L 397.883 556.462L 393.835 559.731L 389.234 562.187L 388.867 567.263L 388.499 572.34L 387.789 575.458L 386.218 578.111L 383.907 580.151L 380.977 581.434L 374.619 583.132L 368.26 584.831L 363.348 584.953L 358.983 582.699L 357.201 580.731L 356.028 578.461L 347.707 584.53L 337.861 587.425L 335.288 587.524L 332.72 587.351L 332.359 587.302L 332 587.238L 327.783 585.995L 323.896 583.942L 322.871 583.214L 321.907 582.446L 319.426 584.502L 316.309 585.702L 313.406 586.315L 310.502 586.927L 307.599 587.539L 304.697 588.151L 301.846 588.367L 299.151 587.806L 298.873 587.897L 298.589 587.982L 297.167 588.386L 295.746 588.791L 294.324 589.196L 292.902 589.601L 291.48 590.005L 290.058 590.411L 288.637 590.815L 287.214 591.22L 282.231 591.406L 277.788 589.143L 276.819 588.199L 275.999 587.171z"/>
<path style="stroke:none; fill:#ffffff" d="M 371.796 521.918L 370.255 535.189L 368.715 548.46L 367.175 561.731L 365.635 575.002L 371.994 573.304L 378.352 571.605L 378.668 567.241L 378.985 562.877L 379.3 558.512L 379.617 554.147L 386.759 552.119L 392.042 547.82L 395.492 542.036L 397.137 535.549L 397.003 529.144L 395.12 523.602L 391.513 519.707L 386.213 518.244L 379.326 519.437L 371.796 521.918zM 382.875 527.506L 382.333 532.213L 381.779 536.976L 381.226 541.738L 380.683 546.445L 385.367 541.911L 387.308 535.646L 387.244 532.612L 386.485 530.044L 385.03 528.243L 382.875 527.506z"/>
<path style="stroke:none; fill:#ffffff" d="M 349.579 520.692L 345.332 521.291L 341.422 522.809L 337.853 525.208L 334.63 528.452L 329.229 537.325L 325.249 549.13L 323.681 560.545L 324.841 569.014L 328.378 574.571L 333.938 577.251L 338.402 577.089L 342.712 575.632L 346.776 573.056L 350.503 569.54L 356.567 560.391L 360.164 549.603L 361.575 539.027L 360.543 529.743L 358.987 526.025L 356.675 523.159L 353.555 521.323L 349.579 520.692zM 346.95 536.726L 343.391 537.874L 340.246 540.656L 337.674 544.991L 335.83 550.8L 334.997 556.499L 335.178 560.799L 336.401 563.659L 338.685 565.034L 342.598 564.171L 346.17 561.02L 348.986 556.357L 350.635 550.956L 351.394 545.701L 351.259 541.078L 349.891 537.835L 346.95 536.726z"/>
<path style="stroke:none; fill:#ffffff" d="M 289.563 527.246L 287.431 554.755L 284.429 581.435L 287.272 580.626L 290.116 579.816L 292.96 579.007L 295.804 578.197L 296.949 567.375L 298.095 556.552L 299.951 556.217L 301.807 555.881L 303.664 555.546L 305.52 555.209L 304.058 566.703L 302.597 578.197L 305.5 577.584L 308.404 576.973L 311.306 576.36L 314.209 575.748L 316.404 550.497L 319.66 523.691L 316.747 524.145L 313.834 524.6L 310.922 525.054L 308.008 525.508L 307.495 530.682L 306.982 535.856L 306.468 541.03L 305.955 546.204L 304.099 546.599L 302.242 546.994L 300.386 547.389L 298.529 547.784L 299.26 542.225L 299.991 536.666L 300.721 531.106L 301.453 525.547L 298.48 525.972L 295.508 526.397L 292.535 526.821L 289.563 527.246z"/>
<path style="stroke:none; fill:#ffffff" d="M 268.765 539.123L 265.748 538.382L 262.406 541.652L 261.717 544.657L 262.976 546.83L 265.344 548.477L 267.98 549.904L 272.895 553.811L 275.793 558.469L 276.923 563.542L 276.53 568.69L 274.722 573.451L 271.667 577.455L 267.7 580.563L 263.153 582.636L 258.358 583.533L 253.65 583.115L 249.359 581.241L 245.819 577.77L 250.088 567.058L 254.885 570.177L 259.216 571.22L 262.579 570.553L 264.471 568.541L 264.599 565.635L 262.095 562.16L 258.86 559.993L 255.674 558.043L 252.827 556.14L 250.609 554.114L 247.864 548.599L 248.745 542.728L 251.632 537.895L 255.558 533.959L 260.492 530.892L 266.4 528.667L 271.708 528.083L 275.741 529.062L 278.55 531.542L 280.185 535.46L 280.449 537.902L 280.402 540.298L 277.655 541.358L 274.882 542.48L 272.109 543.603L 269.362 544.663L 269.264 541.849L 268.766 539.123L 268.765 539.123z"/>
<path style="stroke:none; fill:#1f1f1f" d="M 451.745 280.002L 452.807 281.166L 453.725 282.599L 454.83 286.115L 454.87 289.68L 454.266 307.313L 452.503 325.219L 449.14 342.841L 443.73 359.624L 441.531 363.762L 437.79 366.666L 434.658 367.471L 431.61 367.239L 429.691 370.11L 426.697 372.051L 400.468 382.491L 397.144 383.142L 393.931 382.517L 393.608 383.03L 393.284 383.542L 391.475 385.626L 389.091 387.02L 388.023 387.445L 387.578 387.609L 387.125 387.748L 365.544 393.752L 362.189 394.044L 359.077 393.095L 358.637 393.63L 358.196 394.162L 356.211 395.948L 353.77 397.027L 352.427 397.401L 351.306 397.713L 350.185 398.025L 349.064 398.337L 347.943 398.649L 345.334 398.986L 342.746 398.505L 327.342 393.292L 311.938 388.078L 308.739 386.203L 306.635 383.149L 292.258 349.103L 277.881 315.057L 277.169 311.969L 277.637 308.836L 278.554 306.161L 279.523 303.503L 280.867 301.084L 282.851 299.267L 282.911 295.436L 284.254 291.747L 292.994 275.546L 303.332 260.749L 315.173 247.1L 328.422 234.339L 332.544 231.592L 336.845 230.805L 338.322 226.906L 341.242 223.785L 342.468 222.837L 343.704 221.902L 344.937 220.964L 346.153 220.004L 349.685 217.683L 353.483 216.578L 357.508 216.398L 361.716 216.854L 384.971 221.886L 407.013 229.632L 427.717 240.345L 446.959 254.275L 450.986 259.049L 453.066 264.96L 453.622 268.394L 453.916 271.858L 453.563 276.216L 451.745 280.002z"/>
<path style="stroke:none; fill:#ffcc2a" d="M 334.295 240.932L 321.676 253.066L 310.413 266.013L 300.582 280.055L 292.257 295.475L 291.538 297.649L 293.232 298.921L 311.029 306.509L 313.537 307.562L 314.877 307.725L 315.738 306.755L 316.809 304.411L 331.417 275.044L 348.809 246.929L 349.634 245.471L 348.399 244.595L 338.053 240.109L 336.111 239.679L 334.295 240.932zM 287.791 306.601L 286.882 309.096L 286.014 311.622L 300.392 345.668L 314.769 379.715L 322.471 382.321L 330.173 384.929L 337.875 387.535L 345.576 390.142L 346.697 389.83L 347.818 389.518L 348.939 389.207L 350.06 388.895L 351.402 388.521L 366.633 368.314L 380.256 346.023L 348.075 332.488L 315.999 318.797L 311.457 327.939L 307.028 337.217L 305.368 336.506L 303.71 335.795L 307.373 326.227L 311.222 316.741L 299.5 311.682L 287.791 306.601zM 383.275 347.282L 373.328 366.511L 363.177 385.245L 384.758 379.241L 385.826 378.816L 393.344 366.338L 399.911 354.186L 391.589 350.74L 383.275 347.282zM 404.925 343.806L 411.377 328.326L 416.495 313.266L 420.434 298.558L 423.345 284.134L 423.651 283.485L 424.137 283.317L 424.593 283.656L 424.806 284.528L 423.106 297.181L 419.941 311.325L 415.31 327.057L 409.213 344.478L 408.238 347.452L 410.613 348.973L 432.072 358.123L 434.311 358.543L 435.552 356.298L 440.098 342.534L 443.311 326.917L 445.267 309.313L 446.041 289.591L 445.967 286.842L 443.824 285.454L 389.402 261.823L 385.964 260.757L 383.085 262.656L 371.97 274.922L 361.755 288.283L 352.366 302.717L 343.734 318.205L 343.061 319.83L 344.453 320.761L 400.733 344.76L 403.394 345.752L 404.925 343.806zM 404.71 356.167L 401.096 365.064L 397.202 374.287L 423.432 363.847L 414.065 360.014L 404.71 356.167zM 340.071 316.855L 347.803 300.87L 356.078 285.738L 364.948 271.618L 374.463 258.667L 375.753 256.424L 373.978 254.991L 361.224 249.541L 358.588 249.017L 356.614 250.841L 338.184 278.894L 321.224 308.737L 320.721 310.434L 322.292 311.384L 337.086 317.621L 338.953 318.263L 340.071 316.855z"/>
<path style="stroke:none; fill:#ffcc2a" d="M 351.92 226.694L 350.545 227.791L 349.279 228.756L 348.033 229.695L 346.718 230.712L 345.626 232.049L 347.546 233.189L 394.636 254.141L 441.981 274.157L 444.63 274.667L 445.095 272.252L 444.818 269.177L 444.362 266.465L 443.328 263.448L 441.44 261.173L 423.642 248.189L 404.208 238.003L 383.115 230.502L 360.34 225.576L 354.609 225.316L 351.92 226.694z"/>
<path style="stroke:none; fill:#1f1f1f" d="M 315.356 378.226L 322.944 377.817L 330.346 378.869L 337.36 381.621L 343.783 386.306L 345.087 387.619L 346.301 389.008L 346.624 388.78L 346.947 388.552L 347.384 388.244L 347.837 387.96L 356.411 383.322L 365.791 379.814L 375.549 377.955L 385.258 378.264L 389.045 373.082L 393.346 368.343L 399.15 363.635L 405.578 360.239L 412.406 358.188L 419.412 357.517L 426.374 358.263L 433.07 360.458L 439.278 364.138L 444.775 369.339L 448.007 373.897L 450.386 378.893L 451.881 384.208L 452.462 389.723L 455.137 391.076L 457.706 392.644L 462.604 396.86L 466.196 402.003L 470.694 403.601L 474.862 406.166L 480.682 412.751L 483.44 420.613L 483.289 429.026L 480.379 437.265L 479.782 438.381L 479.051 439.413L 469.831 452.666L 460.117 465.567L 449.39 477.021L 436.939 486.493L 430.081 489.986L 422.811 492.384L 415.133 493.487L 407.053 493.095L 398.404 490.727L 391.405 486.569L 386.074 480.903L 382.427 474.011L 382.041 474.228L 381.655 474.442L 367.909 480.235L 353.822 482.378L 346.847 481.829L 340.025 480.066L 333.435 476.987L 327.153 472.493L 325.486 473.487L 323.797 474.442L 311.901 479.662L 299.686 482.212L 287.562 481.567L 275.946 477.2L 265.986 489.477L 254.617 500.46L 242.031 510.05L 228.42 518.142L 213.977 524.638L 198.894 529.435L 183.364 532.431L 167.578 533.524L 157.267 533.187L 147.046 531.918L 137.221 529.54L 128.099 525.873L 119.989 520.741L 113.196 513.966L 108.026 505.368L 104.787 494.772L 103.981 488.417L 103.84 482.012L 103.854 481.453L 103.898 480.896L 105.321 471.497L 108.095 462.578L 112.282 454.245L 117.943 446.603L 118.461 446.018L 119.022 445.475L 122.405 442.677L 126.181 440.437L 130.585 438.696L 135.2 437.671L 141.381 423.023L 149.982 409.145L 159.979 396.114L 170.355 384.011L 173.308 380.672L 176.273 377.342L 158.086 386.347L 141.657 398.071L 137.067 402.143L 132.11 405.395L 126.637 407.586L 120.5 408.472L 114.558 407.912L 109.104 406.066L 104.129 403.115L 99.6165 399.239L 99.3318 398.956L 99.0583 398.66L 94.6071 392.884L 91.5447 386.796L 89.7775 380.477L 89.2128 374.008L 91.3227 360.951L 97.1347 348.28L 97.809 347.165L 98.62 346.145L 106.077 338.179L 114.585 331.378L 123.855 325.6L 133.603 320.703L 157.045 311.846L 181.476 305.886L 206.442 302.602L 231.489 301.773L 247.693 302.448L 263.834 304.022L 264.492 304.104L 265.143 304.229L 269.711 305.223L 274.223 306.446L 286.62 311.193L 297.517 317.526L 306.629 325.256L 313.668 334.193L 318.347 344.149L 320.379 354.932L 319.478 366.355L 315.356 378.226zM 251.431 360.728L 251.399 361.133L 251.363 361.537L 251.842 361.147L 252.321 360.755L 251.876 360.741L 251.431 360.728z"/>
<path style="stroke:none; fill:#fff686" d="M 122.976 391.36L 125.616 392.198L 128.201 391.608L 131.004 389.708L 134.303 386.62L 143.678 379.283L 154.214 372.885L 165.607 367.164L 177.552 361.856L 199.002 354.092L 221.157 348.504L 244.18 345.604L 268.237 345.899L 269.598 346.093L 270.906 346.32L 267.037 345.129L 262.549 344.319L 238.529 344.16L 215.587 347.359L 193.515 353.246L 172.101 361.145L 160.224 366.582L 148.981 372.589L 138.594 379.272L 129.287 386.739L 125.918 389.767L 122.977 391.36L 122.976 391.36z"/>
<path style="stroke:none; fill:#ffffff" d="M 219.13 353.044L 212.89 365.131L 203.963 376.585L 196.879 384.769L 189.472 393.111L 182.029 401.574L 174.843 410.12L 168.201 418.71L 162.393 427.306L 157.707 435.869L 154.434 444.362L 152.819 452.412L 154.022 459.826L 155.531 463.224L 157.727 466.303L 162.226 470.981L 165.077 476.437L 166.476 478.481L 168.416 480.225L 172.91 482.036L 177.046 481.988L 179.592 480.071L 179.317 476.276L 177.497 470.474L 177.821 463.837L 179.502 457.221L 181.761 451.478L 188.34 438.814L 196.616 425.561L 198.276 424.177L 200.093 423.981L 212.475 422.599L 225.173 418.689L 228.688 417.716L 231.849 417.898L 237.679 419.022L 243.484 420.544L 246.252 422.212L 247.701 424.586L 248.066 427.465L 247.582 430.649L 245.006 437.134L 241.849 442.441L 229.689 457.252L 215.633 469.046L 199.843 478.504L 182.478 486.308L 173.612 489.332L 164.782 491.206L 155.993 491.855L 147.246 491.206L 142.801 489.975L 139.696 488.034L 138.21 485.233L 138.619 481.428L 142.335 473.412L 147.3 465.94L 148.294 463.649L 147.908 461.58L 146.436 459.847L 144.177 458.559L 138.479 457.763L 133.186 460.082L 129.705 464.754L 127.023 470.035L 125.172 475.948L 124.18 482.516L 124.274 486.948L 124.79 491.046L 126.991 497.659L 130.651 502.833L 135.489 506.739L 141.222 509.544L 154.239 512.539L 167.439 513.178L 182.35 512.03L 196.997 508.873L 211.146 503.832L 224.557 497.031L 236.992 488.594L 248.211 478.645L 257.978 467.309L 266.053 454.71L 269.109 446.958L 270.995 439.461L 271.731 432.352L 271.337 425.769L 269.83 419.845L 267.23 414.718L 263.555 410.523L 258.826 407.393L 257.021 406.346L 256.396 405.262L 256.938 404.158L 258.628 403.048L 269.18 396.992L 278.399 390.641L 286.165 383.972L 292.361 376.955L 298.099 366.841L 299.986 357.582L 298.574 349.253L 294.413 341.931L 288.056 335.69L 280.053 330.606L 270.955 326.755L 261.314 324.212L 246.113 322.734L 231.223 322.118L 206.706 322.993L 183.499 326.204L 161.857 331.649L 142.034 339.22L 133.729 343.373L 126.314 347.989L 119.885 353.117L 114.543 358.811L 110.875 366.445L 109.552 373.341L 110.587 379.479L 113.991 384.84L 117.55 387.555L 120.724 388.063L 123.949 386.575L 127.656 383.299L 136.964 375.832L 147.351 369.149L 158.594 363.143L 170.472 357.705L 191.884 349.806L 213.957 343.919L 236.899 340.72L 260.92 340.88L 267.945 342.405L 273.306 344.896L 276.994 348.216L 278.999 352.225L 279.313 356.787L 277.924 361.761L 274.824 367.011L 270.004 372.398L 256.649 383.131L 242.554 392.424L 227.786 400.413L 212.418 407.234L 210.535 407.597L 209.699 407.136L 209.809 405.994L 210.759 404.312L 219.708 389.618L 226.441 376.189L 230.408 364.341L 231.06 354.388L 229.115 348.678L 225.717 346.705L 222.009 348.237L 219.13 353.044zM 302.244 434.389L 300.319 434.762L 299.361 436.365L 297.905 440.432L 297.059 444.196L 296.725 449.82L 299.536 453.987L 310.957 451.265L 320.605 445.407L 328.928 438.329L 336.94 430.15L 337.83 428.256L 338.844 426.355L 346.948 415.31L 358.64 405.201L 369.027 400.073L 378.191 398.161L 382.074 398.419L 385.362 399.492L 387.957 401.383L 389.764 404.095L 390.178 410.235L 387.978 416.448L 382.692 423.292L 375.772 428.593L 367.985 432.307L 360.102 434.389L 358.176 434.762L 357.218 436.365L 355.763 440.432L 354.916 444.196L 354.583 449.82L 357.393 453.987L 368.815 451.265L 378.463 445.407L 388.328 436.847L 397.787 426.845L 398.648 423.114L 397.332 419.177L 395.673 409.523L 397.312 399.828L 401.514 390.628L 407.642 382.821L 411.783 379.717L 416.105 378.137L 420.362 377.923L 424.308 378.914L 427.695 380.955L 430.278 383.885L 431.811 387.545L 432.046 391.779L 430.534 397.17L 427.371 403.049L 420.894 411.245L 413.232 418.571L 412.011 420.146L 412.422 421.736L 414.105 422.652L 416.707 422.205L 420.069 419.766L 423.797 416.517L 427.719 412.907L 431.658 409.379L 436.195 406.997L 441.038 407.116L 443.802 408.144L 446.409 409.565L 448.522 412.588L 447.081 416.241L 434.432 433.851L 423.62 453.683L 421.437 459.502L 421.457 462.432L 423.753 462.213L 428.399 458.581L 443.015 442.292L 456.521 424.337L 458.988 422.069L 461.725 421.894L 463.341 423.769L 462.445 427.655L 452.8 441.601L 440.429 457.213L 433.414 464.045L 425.95 469.373L 418.116 472.559L 409.986 472.961L 405.228 471.359L 402.043 468.125L 400.55 463.211L 400.87 456.567L 405.012 443.765L 411.81 432.592L 412.757 430.515L 410.784 429.906L 406.528 429.333L 403.717 427.802L 402.766 427.587L 401.949 428.393L 392.548 439.933L 382.153 449.659L 372.651 456.196L 361.738 460.91L 356.093 461.949L 350.503 461.768L 345.108 460.115L 340.041 456.736L 337.205 453.471L 335.276 449.594L 334.272 445.207L 334.213 440.412L 329.374 445.253L 324.295 449.659L 314.793 456.196L 303.88 460.91L 298.235 461.949L 292.647 461.768L 287.251 460.115L 282.184 456.736L 277.956 450.939L 276.288 443.63L 277.268 435.277L 280.986 426.355L 289.09 415.31L 300.783 405.201L 311.169 400.073L 320.334 398.161L 324.217 398.42L 327.505 399.492L 330.1 401.383L 331.906 404.095L 332.32 410.236L 330.12 416.448L 324.835 423.292L 317.915 428.593L 310.128 432.307L 302.244 434.389zM 419.795 391.497L 422.247 390.265L 424.214 390.534L 424.901 392.115L 423.508 394.815L 420.473 397.816L 417.814 401.744L 415.297 406.236L 412.843 409.587L 412.127 410.746L 411.383 410.455L 410.926 409.197L 411.066 407.455L 414.402 399.002L 419.795 391.497zM 372.425 416.172L 365.704 422.999L 363.94 427.063L 368.161 426.01L 376.01 420.594L 382.82 413.846L 384.673 409.861L 380.364 410.834L 372.425 416.172zM 314.569 416.172L 307.846 422.999L 306.083 427.063L 310.304 426.01L 318.153 420.594L 324.964 413.846L 326.815 409.861L 322.507 410.834L 314.568 416.172L 314.569 416.172z"/>
<path style="stroke:none; fill:#fff686" d="M 261.029 408.626L 270.379 403.462L 280.127 397.075L 289.168 389.814L 296.397 382.026L 302.897 371.812L 305.931 362.916L 305.788 354.667L 302.753 346.393L 304.248 352.898L 304.615 360.391L 301.862 369.698L 294.001 381.646L 285.616 390.012L 275.901 397.209L 266.183 403.072L 257.791 407.433L 261.029 408.626z"/>
<path style="stroke:none; fill:#fff686" d="M 154.941 514.711L 164.491 516.249L 174.308 516.657L 184.272 516.002L 194.268 514.349L 213.885 508.318L 232.216 499.095L 248.324 487.207L 261.269 473.185L 266.264 465.541L 270.114 457.561L 272.705 449.313L 273.918 440.863L 271.789 449.537L 268.451 457.887L 264.014 465.868L 258.583 473.432L 245.17 487.123L 229.069 498.588L 211.139 507.452L 192.236 513.343L 173.218 515.887L 154.941 514.711z"/>
<path style="stroke:none; fill:#fff686" d="M 143.356 486.459L 142.075 484.011L 142.239 482.28L 145.399 476.459L 149.283 470.969L 151.438 466.81L 149.82 463.465L 150.445 466.239L 148.898 469.511L 144.851 474.924L 141.388 480.606L 140.546 482.985L 140.637 484.626L 141.596 485.719L 143.356 486.459z"/>
<path style="stroke:none; fill:#fff686" d="M 184.663 457.233L 191.518 443.602L 200.071 429.381L 201.73 427.997L 203.546 427.801L 215.731 426.36L 228.232 422.39L 232.125 421.395L 235.776 421.344L 236.415 421.28L 236.697 421.186L 236.643 421.065L 236.273 420.922L 234.667 420.593L 232.044 420.238L 228.696 420.184L 224.993 421.284L 213.243 425.076L 201.809 426.34L 199.991 426.536L 198.333 427.92L 189.879 441.904L 183.122 455.298L 180.992 460.725L 179.532 466.29L 179.275 470.978L 180.757 473.776L 181.726 473.286L 181.319 471.118L 181.609 466.143L 184.663 457.233z"/>
<path style="stroke:none; fill:#ffffff" d="M 391.311 385.005L 395.137 379.423L 399.823 374.575L 407.042 369.319L 415.026 366.549L 423.082 366.184L 430.514 368.152L 435.796 371.574L 439.718 376.559L 441.864 383.061L 441.811 391.035L 439.882 383.408L 436.351 376.909L 430.864 372.001L 424.835 369.454L 418.55 369.006L 412.294 370.399L 406.353 373.372L 401.01 377.666L 396.553 383.021L 393.264 389.177L 392.313 391.406L 391.569 392.164L 391.081 392.141L 390.414 391.93L 389.489 391.59L 388.232 391.182L 382.373 390.073L 376.529 390.062L 370.769 391.015L 365.159 392.801L 354.664 398.348L 345.593 405.649L 342.758 407.494L 341.468 406.193L 341.253 405.518L 341.044 404.741L 340.824 403.881L 340.574 402.957L 339.914 400.994L 338.922 399.002L 334.012 393.715L 327.702 390.886L 320.376 390.229L 312.415 391.458L 304.202 394.286L 296.121 398.429L 288.554 403.599L 281.884 409.51L 289.243 400.558L 295.958 395.168L 307.527 389.643L 320.932 386.83L 327.493 387.156L 333.519 389.018L 338.676 392.704L 342.635 398.497L 343.676 400.572L 344.474 401.304L 345.481 400.879L 347.15 399.483L 350.013 397.193L 352.99 395.025L 353.229 394.858L 353.476 394.703L 360.933 390.812L 369.106 388.098L 377.75 386.812L 386.625 387.203L 389.635 387.482L 391.311 385.005zM 443.272 395.119L 448.435 396.815L 453.267 399.241L 456.655 402.486L 459.111 406.438L 460.015 408.308L 460.49 409.452L 460.731 410.051L 460.935 410.287L 461.085 410.324L 461.299 410.338L 461.602 410.35L 462.019 410.384L 463.291 410.608L 465.311 411.187L 470.776 414.54L 474.01 419.679L 474.796 425.716L 472.914 431.765L 472.832 431.916L 473.639 425.759L 471.732 420.119L 467.672 415.753L 462.021 413.415L 457.965 412.802L 456.857 409.805L 453.302 402.811L 448.94 398.664L 446.883 397.362L 445.14 396.416L 443.879 395.708L 443.272 395.12L 443.272 395.119z"/>
<path style="stroke:none; fill:#ffffff" d="M 106.247 385.057L 102.138 377.275L 101.438 369.055L 103.595 360.72L 108.06 352.591L 114.283 344.991L 121.716 338.242L 129.809 332.666L 138.011 328.586L 151.712 323.226L 167.484 318.584L 184.684 314.826L 202.671 312.118L 220.801 310.622L 238.431 310.507L 254.921 311.937L 269.624 315.076L 280.455 319.335L 290.677 325.401L 299.315 332.873L 305.391 341.346L 305.723 342.081L 305.775 342.389L 305.597 342.344L 305.241 342.019L 304.201 340.82L 303.065 339.372L 295.731 331.585L 287.593 325.985L 278.752 321.935L 269.308 318.803L 249.646 315.358L 229.774 314.574L 206.399 315.27L 183.278 318.173L 160.656 323.589L 138.783 331.821L 129.726 336.992L 121.745 342.948L 115.015 349.508L 109.711 356.493L 106.007 363.72L 104.079 371.011L 104.1 378.183L 106.247 385.057z"/>
<path style="stroke:none; fill:#ffffff" d="M 143.08 444.23L 146.411 433.804L 151.211 423.889L 157.167 414.422L 163.971 405.338L 171.313 396.572L 178.882 388.06L 186.367 379.738L 193.46 371.539L 197.469 367.451L 198.744 366.93L 197.735 369.061L 194.894 372.932L 187.486 381.93L 180.04 390.487L 172.744 398.865L 165.783 407.332L 159.344 416.153L 153.618 425.593L 148.79 435.918L 145.047 447.393L 144.62 448.627L 143.428 448.73L 141.685 448.756L 140.341 448.803L 135.893 449.453L 131.672 451.013L 128.646 452.883L 126.018 455.265L 120.156 465.445L 117.283 478.005L 117.503 491.148L 120.919 503.075L 126.571 510.77L 135.107 516.477L 146.314 520.485L 159.977 523.083L 156.467 524.183L 152.672 523.9L 141.711 521.776L 132.471 517.907L 125.024 512.452L 119.436 505.571L 116.662 499.647L 114.936 492.839L 114.25 485.483L 114.599 477.917L 115.977 470.477L 118.378 463.502L 121.798 457.327L 126.227 452.292L 133.754 447.558L 141.534 445.847L 142.755 445.679L 143.08 444.23z"/>
<path style="stroke:none; fill:#fff686" d="M 210.316 550.1L 220.928 540.193L 232.142 531.122L 244.029 522.893L 256.657 515.51L 270.096 508.979L 284.416 503.302L 299.685 498.486L 315.973 494.535L 347.22 490.648L 376.243 490.015L 403.083 492.352L 427.776 497.372L 435.058 499.146L 439.293 499.861L 440.409 499.89L 440.934 499.734L 440.922 499.422L 440.432 498.98L 434.814 496.458L 426.059 494.025L 394.072 489.159L 363.102 487.475L 333.394 488.989L 305.19 493.725L 291.729 497.306L 278.736 501.7L 266.239 506.909L 254.272 512.936L 242.861 519.783L 232.041 527.452L 221.839 535.947L 212.288 545.269L 210.52 547.433L 209.219 549.721L 208.924 550.555L 208.96 550.991L 209.401 550.887L 210.316 550.1z"/>
<path style="stroke:none; fill:#ffffff" d="M 208.732 542.221L 219.735 532.633L 231.321 523.899L 243.562 516.027L 256.524 509.022L 270.279 502.891L 284.897 497.642L 300.447 493.282L 317 489.816L 348.644 486.857L 377.946 487.087L 404.956 490.218L 429.72 495.969L 437.503 498.208L 442.54 499.238L 442.133 497.821L 433.592 492.719L 422.85 487.831L 410.032 483.642L 395.579 480.246L 379.938 477.735L 363.548 476.206L 346.852 475.75L 330.294 476.464L 314.314 478.44L 295.232 482.654L 277.838 488.118L 262.104 494.724L 248.001 502.369L 235.497 510.946L 224.564 520.352L 215.171 530.48L 207.29 541.226L 205.916 543.564L 205.748 544.447L 206.713 543.969L 208.732 542.221z"/>
<path style="stroke:none; fill:#fff686" d="M 334.769 447.122L 325.947 454.592L 315.449 461.369L 309.792 463.936L 303.981 465.655L 298.106 466.3L 292.254 465.645L 298.445 465.669L 304.492 464.587L 310.333 462.581L 315.909 459.831L 326.019 452.817L 334.341 444.985L 334.456 445.666L 334.482 445.828L 334.5 445.911L 334.543 446.102L 334.628 446.48L 334.769 447.122z"/>
<path style="stroke:none; fill:#fff686" d="M 305.837 438.074L 303.867 438.377L 302.865 439.91L 301.432 444.083L 300.356 449.042L 299.675 452.558L 299.426 452.399L 300.081 443.613L 301.542 438.647L 302.5 437.044L 304.425 436.672L 314.098 434.299L 323.683 428.879L 327.887 424.99L 331.401 420.297L 334.003 414.785L 335.471 408.439L 334.957 414.628L 332.918 420.147L 329.659 424.975L 325.488 429.093L 315.642 435.121L 305.837 438.074z"/>
<path style="stroke:none; fill:#fff686" d="M 350.267 465.645L 358.751 465.472L 366.71 463.404L 374.175 459.793L 381.178 454.99L 393.929 443.216L 405.221 430.895L 405.762 431.212L 405.927 431.497L 405.343 432.097L 404.17 433.482L 402.454 435.53L 400.237 438.114L 394.473 444.396L 387.223 451.33L 378.832 457.919L 369.646 463.167L 360.009 466.074L 350.267 465.645z"/>
<path style="stroke:none; fill:#fff686" d="M 363.852 438.074L 361.748 438.531L 360.563 440.009L 359.18 444.167L 358.213 449.092L 357.64 452.573L 357.44 452.399L 358.095 443.613L 359.556 438.647L 360.514 437.044L 362.439 436.672L 372.112 434.299L 381.697 428.879L 385.901 424.99L 389.414 420.297L 392.017 414.785L 393.485 408.439L 392.971 414.628L 390.932 420.147L 387.673 424.975L 383.502 429.093L 373.657 435.121L 363.852 438.074z"/>
<path style="stroke:none; fill:#fff686" d="M 430.362 380.521L 434.111 389.369L 433.851 396.613L 432.893 399.549L 431.743 401.983L 431.18 403.002L 430.671 403.883L 430.249 404.622L 429.948 405.213L 429.843 405.695L 430.446 405.889L 432.174 403.828L 434.577 397.894L 435.168 393.951L 434.893 389.614L 433.406 385.073L 430.362 380.521z"/>
<path style="stroke:#373535; stroke-width:0.566588; fill:#fff686" d="M 451.49 411.313L 451.417 414.052L 449.812 416.778L 435.701 436.987L 424.749 458.336L 426.221 457.202L 427.706 455.858L 434.656 442.326L 442.913 429.464L 447.777 422.774L 453.072 416.411L 453.082 416.4L 453.092 416.389L 454.178 414.121L 452.789 412.109L 452.148 411.694L 451.491 411.313L 451.49 411.313z"/>
<path style="stroke:#373535; stroke-width:0.566588; fill:#fff686" d="M 465.356 427.338L 457.036 441.33L 445.618 456.126L 440.525 461.692L 434.693 467.136L 428.229 471.88L 421.243 475.347L 428.206 473.168L 434.932 469.097L 441.365 463.592L 447.454 457.109L 458.371 443.049L 467.249 430.585L 467.951 428.855L 467.696 427.183L 466.566 426.925L 465.356 427.338z"/>
<path style="stroke:none; fill:#fff686" d="M 215.048 406.16L 215.5 405.533L 216.229 404.538L 216.958 403.543L 217.413 402.911L 223.479 393.826L 229.135 383.406L 233.399 371.081L 235.288 356.273L 235.29 354.935L 235.224 354.295L 235.098 354.263L 234.925 354.752L 234.474 356.948L 233.952 360.175L 231.766 371.003L 228.695 380.108L 224.531 388.467L 219.063 397.055L 216.947 400.093L 214.827 403.099L 213.32 405.256L 211.813 407.418L 212.147 407.466L 213.272 407.008L 213.909 406.714L 214.476 406.441L 214.886 406.241L 215.048 406.161L 215.048 406.16z"/>
<path style="stroke:#ffffff; stroke-width:0.315604; fill:#ffffff" d="M 205.597 285.014L 207.346 294.988L 206.758 298.638L 203.383 300.412L 198.306 301.302L 194.872 281.715L 199.845 280.843L 202.055 280.775L 203.735 281.436L 204.908 282.845L 205.597 285.014zM 204.293 295.151L 202.594 285.461L 201.757 283.715L 200.103 283.375L 198.273 283.696L 200.831 298.283L 202.661 297.962L 203.503 297.654L 204.073 297.077L 204.344 296.238L 204.293 295.151zM 218.176 295.241L 218.614 297.741L 210.676 299.132L 207.242 279.546L 215.127 278.163L 215.567 280.663L 210.644 281.526L 211.629 287.144L 215.881 286.399L 216.32 288.898L 212.068 289.645L 213.202 296.113L 218.176 295.241zM 227.689 282.23L 227.906 284.187L 227.816 285.834L 227.422 287.187L 226.729 288.269L 225.709 289.045L 224.339 289.484L 222.406 289.823L 223.639 296.859L 220.676 297.379L 217.241 277.793L 221.751 277.002L 223.396 276.896L 224.723 277.211L 225.779 277.913L 226.611 278.966L 227.241 280.396L 227.689 282.23zM 224.72 282.724L 224.328 281.206L 223.765 280.155L 222.957 279.599L 221.828 279.565L 220.642 279.773L 221.976 287.375L 223.11 287.177L 224.118 286.768L 224.717 285.965L 224.916 284.655L 224.72 282.724zM 233.615 271.946L 236.321 271.472L 234.321 274L 231.925 274.421L 233.615 271.946zM 239.085 278.903L 240.852 288.98L 240.966 290.477L 240.745 291.774L 240.207 292.875L 239.37 293.782L 238.243 294.458L 236.837 294.864L 235.825 294.965L 234.852 294.906L 233.94 294.681L 233.109 294.282L 232.378 293.693L 231.763 292.898L 231.291 291.901L 230.982 290.71L 229.215 280.633L 229.093 279.071L 229.317 277.734L 229.865 276.615L 230.716 275.708L 231.86 275.04L 233.29 274.633L 234.294 274.53L 235.246 274.582L 236.135 274.802L 236.949 275.2L 237.671 275.797L 238.285 276.613L 238.766 277.647L 239.085 278.903zM 237.922 289.839L 236.028 279.04L 235.734 278.162L 235.207 277.537L 234.51 277.201L 233.711 277.189L 232.925 277.476L 232.369 278.021L 232.085 278.786L 232.111 279.728L 234 290.5L 234.3 291.4L 234.841 292.039L 235.562 292.381L 236.403 292.389L 237.162 292.101L 237.689 291.54L 237.952 290.766L 237.922 289.839zM 252.433 287.002L 252.473 287.234L 252.542 288.551L 252.276 289.819L 251.68 290.946L 250.758 291.839L 249.621 292.476L 248.383 292.839L 246.374 292.879L 244.782 292.222L 243.642 290.895L 242.994 288.923L 242.866 287.849L 242.842 286.692L 245.291 286.422L 245.298 287.363L 245.42 288.364L 245.641 289.129L 246.004 289.723L 246.46 290.131L 246.962 290.339L 247.458 290.401L 247.898 290.374L 248.722 290.093L 249.286 289.586L 249.57 288.876L 249.551 287.986L 249.492 287.651L 249.25 286.88L 248.797 286.112L 247.76 285.122L 245.768 283.682L 244.035 282.421L 242.811 281.291L 241.994 280.302L 241.483 279.466L 241.186 278.741L 241.014 278.086L 240.978 277.88L 240.937 276.603L 241.264 275.346L 241.911 274.246L 242.829 273.438L 243.908 272.89L 245.041 272.572L 247.03 272.535L 248.565 273.203L 249.638 274.489L 250.239 276.31L 250.399 277.484L 250.452 278.583L 248.003 278.853L 247.976 278.021L 247.841 277.022L 247.531 275.977L 247.037 275.317L 246.365 275.007L 245.523 275.012L 244.953 275.174L 244.483 275.446L 244.139 275.812L 243.947 276.257L 243.881 276.73L 243.91 277.18L 243.942 277.36L 244.149 278.008L 244.542 278.663L 245.422 279.518L 247.089 280.766L 249.272 282.419L 250.851 283.892L 251.886 285.361L 252.433 287.002zM 254.842 271.199L 258.276 290.785L 255.313 291.305L 251.878 271.719L 254.842 271.199zM 266.207 269.206L 266.646 271.706L 263.218 272.307L 266.214 289.393L 263.251 289.913L 260.254 272.827L 256.826 273.428L 256.388 270.927L 266.207 269.206zM 278.052 272.07L 279.819 282.147L 279.933 283.644L 279.712 284.941L 279.174 286.042L 278.337 286.949L 277.21 287.624L 275.804 288.031L 274.792 288.132L 273.819 288.073L 272.906 287.848L 272.076 287.449L 271.345 286.86L 270.731 286.065L 270.257 285.069L 269.949 283.878L 268.182 273.801L 268.061 272.238L 268.285 270.9L 268.831 269.782L 269.682 268.876L 270.827 268.207L 272.256 267.799L 273.261 267.696L 274.213 267.749L 275.101 267.968L 275.915 268.367L 276.638 268.965L 277.253 269.779L 277.732 270.814L 278.052 272.07zM 276.888 283.006L 274.995 272.208L 274.701 271.329L 274.173 270.705L 273.477 270.368L 272.678 270.355L 271.892 270.643L 271.337 271.189L 271.052 271.953L 271.077 272.894L 272.967 283.667L 273.268 284.567L 273.808 285.206L 274.528 285.548L 275.37 285.557L 276.13 285.267L 276.656 284.707L 276.918 283.934L 276.888 283.006z"/>
<path style="stroke:none; fill:#ffffff" d="M 138.686 314.637L 234.111 296.626L 129.206 321.904L 138.686 314.637z"/>
<path style="stroke:none; fill:#ffffff" d="M 189.558 268.662L 279.295 249.546L 189.558 263.765L 189.558 268.662z"/>
<path style="stroke:none; fill:#ffffff" d="M 186.24 275.14L 276.294 258.235L 177.708 281.144L 186.24 275.14z"/>
<path style="stroke:none; fill:#ffffff" d="M 328.333 240.067L 320.875 245.248L 313.811 251.605L 307.237 258.916L 301.248 266.955L 291.407 284.324L 285.052 301.923L 294.077 283.321L 304.086 267.223L 315.397 253.01L 328.333 240.067z"/>
<path style="stroke:none; fill:#ffffff" d="M 452.196 323.301L 446.334 348.378L 438.969 370.69L 442.804 365.556L 447.839 352.366L 451.746 336.49L 452.196 323.301z"/>
<path style="stroke:none; fill:#1f1f1f" d="M 378.012 253.891L 366.809 269.084L 356.834 284.557L 348.027 300.297L 340.329 316.289L 338.2 320.812L 337.166 324.135L 338.014 325.348L 339.801 325.17L 340.94 323.554L 342.115 321.388L 342.656 320.31L 343.132 319.343L 343.521 318.574L 343.797 318.084L 352.53 302.325L 362.856 286.916L 374.932 271.893L 388.913 257.288L 383.463 255.59L 378.012 253.891z"/>
<path style="stroke:none; fill:#1f1f1f" d="M 382.533 340.213L 381.106 344.04L 379.199 347.945L 364.889 370.162L 349.079 391.776L 352.052 391.179L 355.319 390.337L 358.586 389.496L 361.558 388.898L 372.105 368.23L 383.275 347.282L 383.761 345.771L 384.247 344.261L 384.733 342.751L 385.219 341.241L 383.877 340.726L 382.533 340.213z"/>
</g>
</svg>